<?xml version="1.0" encoding="utf-8"?>
<!-- Generator: Adobe Illustrator 25.2.3, SVG Export Plug-In . SVG Version: 6.00 Build 0)  -->
<svg version="1.1" id="Layer_1" xmlns="http://www.w3.org/2000/svg" xmlns:xlink="http://www.w3.org/1999/xlink" x="0px" y="0px"
	 viewBox="0 0 1150 350" style="enable-background:new 0 0 1150 350;" xml:space="preserve">
<style type="text/css">
	.st0{fill:#35495E;}
	.st1{fill:#2C3E50;}
	.st2{fill:#F9EAB0;}
	.st3{fill:#E64C3C;}
	.st4{fill:#3F5C6C;}
	.st5{fill:#ECF0F1;}
	.st6{fill:#C03A2B;}
	.st7{fill:#802F34;}
	.st8{enable-background:new    ;}
	.st9{font-family:'Noteworthy-Light';}
	.st10{font-size:124px;}
</style>
<g id="Page-1">
	<g id="_x30_30---Messy-Books">
		<path id="Shape" class="st0" d="M43.3,295.3L14.6,132.1c-0.3-1.6-0.5-3.2-0.5-4.8C13.7,108.8,27,92.8,45.2,89.9l55.5-9.8
			l-1.5,215.2L43.3,295.3L43.3,295.3z"/>
		<path id="Shape_1_" class="st1" d="M256.8,288.1c-1,4-4.2,7-8.2,7.8L85.4,324.7c-10.3,1.8-20.9-0.9-29-7.5
			c-8.1-6.5-13.1-16.3-13.5-26.7c-0.4-17.7,11.8-33.2,29.1-37l45.7,12.8h-0.1l-41.2,7.3c-4.6,0.8-8.6,3.6-10.9,7.7
			c-2.3,4.1-2.6,8.9-0.9,13.3c2.9,7,10.4,11,17.8,9.5l124.8-22L256.8,288.1z"/>
		<path id="Shape_2_" class="st2" d="M117.5,266.4l-41.2,7.3c-4.6,0.8-8.6,3.6-10.9,7.7c-2.3,4.1-2.6,8.9-0.9,13.3
			c2.9,7,10.4,11,17.8,9.5l124.8-22L117.5,266.4z"/>
		<path id="Shape_3_" class="st3" d="M80.1,196.6l28.8-163.2c1-5.6,6.4-9.4,12-8.4l162,28.6c18.3,3,31.6,19,31.2,37.5
			c-0.1,1.6-0.2,3.2-0.5,4.7L284.8,259L80.1,196.6z"/>
		<path id="Shape_4_" class="st4" d="M249,79.1c-0.3,0-0.6,0-0.9-0.1L130.8,58.3c-2.6-0.7-4.3-3.2-3.9-5.9c0.5-2.7,3-4.5,5.7-4.2
			l117.3,20.6c2.6,0.5,4.5,2.9,4.3,5.5C253.9,77,251.7,79.1,249,79.1L249,79.1z"/>
		<path id="Shape_5_" class="st4" d="M224.1,101c-0.3,0-0.6,0-0.9-0.1l-76.5-13.5c-2.8-0.6-4.6-3.2-4.1-6s3.1-4.6,5.9-4.2L225,90.7
			c2.7,0.4,4.5,2.9,4.3,5.6C229.1,98.9,226.8,101,224.1,101z"/>
		<path id="Rectangle-path" class="st5" d="M127.8,105.2l107.1,18.9c2.8,0.5,4.7,3.2,4.2,6l-9,51c-0.5,2.8-3.2,4.7-6,4.2L117,166.4
			c-2.8-0.5-4.7-3.2-4.2-6l9-51C122.3,106.6,125,104.7,127.8,105.2z"/>
		<path id="Shape_6_" class="st6" d="M314,91c-0.1,1.6-0.2,3.2-0.5,4.8L284.7,259l-39.9-12.2l23.1-131.2l5.5-31l5.6-31.7l3.9,0.7
			C301.2,56.6,314.4,72.5,314,91L314,91z"/>
		<path id="Shape_7_" class="st7" d="M254.1,216.8l-162-28.5c-0.6-0.1-1.2-0.2-1.8-0.2c-5.4,0-9.8,4.1-10.3,9.5
			c-0.5,5.3,3.2,10.2,8.5,11.1l163.2,28.7c4.6,0.8,8.6,3.7,10.8,7.7c2.3,4.1,2.6,8.9,0.9,13.3c-2.9,7-10.3,10.9-17.8,9.5L83,239.3
			c-0.6-0.1-1.2-0.2-1.8-0.2c-5.4,0-9.9,4.1-10.3,9.4c-0.5,5.4,3.2,10.2,8.5,11.1l163.2,28.7c10.3,1.8,20.8-0.9,29-7.4
			c8.1-6.5,13.1-16.3,13.5-26.7C285.7,235.8,272.4,219.8,254.1,216.8L254.1,216.8z"/>
		<path id="Shape_8_" class="st2" d="M263.5,258.4c-2.9,7-10.3,10.9-17.8,9.5L83.1,239.3l5.4-30.6l163.2,28.7
			c4.6,0.8,8.6,3.7,10.8,7.7C264.8,249.2,265.2,254.1,263.5,258.4L263.5,258.4z"/>
	</g>
</g>
<text transform="matrix(1 0 0 1 353.9782 155.9074)" class="st8"><tspan x="0" y="0" class="st9 st10">Book Discussion</tspan><tspan x="0" y="148.8" class="st9 st10">Scheme</tspan></text>
</svg>
