<?xml version="1.0" encoding="utf-8"?>
<!-- Generator: Adobe Illustrator 25.2.3, SVG Export Plug-In . SVG Version: 6.00 Build 0)  -->
<svg version="1.1" id="Layer_1" xmlns="http://www.w3.org/2000/svg" xmlns:xlink="http://www.w3.org/1999/xlink" x="0px" y="0px"
	 viewBox="0 0 512 512" style="enable-background:new 0 0 512 512;" xml:space="preserve">
<style type="text/css">
	.st0{fill:#35495E;}
	.st1{fill:#2C3E50;}
	.st2{fill:#F9EAB0;}
	.st3{fill:#E64C3C;}
	.st4{fill:#3F5C6C;}
	.st5{fill:#ECF0F1;}
	.st6{fill:#C03A2B;}
	.st7{fill:#802F34;}
	.st8{fill:#FCF7F8;}
	.st9{font-family:'Noteworthy-Light';}
	.st10{font-size:104px;}
</style>
<g id="Page-1">
	<g id="_x30_30---Messy-Books">
		<path id="Shape" class="st0" d="M62.3,394L28.8,203.6c-0.3-1.9-0.6-3.7-0.6-5.6c-0.5-21.6,15-40.2,36.3-43.6l64.7-11.4l-1.7,251
			H62.3L62.3,394z"/>
		<path id="Shape_1_" class="st1" d="M311.4,385.6c-1.2,4.7-4.9,8.2-9.6,9.1l-190.4,33.6c-12,2.1-24.4-1-33.8-8.7
			c-9.4-7.6-15.3-19-15.7-31.1c-0.5-20.6,13.8-38.7,33.9-43.2l53.3,14.9H149l-48.1,8.5c-5.4,0.9-10,4.2-12.7,9s-3,10.4-1,15.5
			c3.4,8.2,12.1,12.8,20.8,11.1l145.6-25.7L311.4,385.6z"/>
		<path id="Shape_2_" class="st2" d="M148.9,360.3l-48.1,8.5c-5.4,0.9-10,4.2-12.7,9s-3,10.4-1,15.5c3.4,8.2,12.1,12.8,20.8,11.1
			l145.6-25.7L148.9,360.3z"/>
		<path id="Shape_3_" class="st3" d="M105.2,278.9l33.6-190.4c1.2-6.5,7.5-11,14-9.8l189,33.4c21.3,3.5,36.9,22.2,36.4,43.7
			c-0.1,1.9-0.2,3.7-0.6,5.5L344,351.6L105.2,278.9z"/>
		<path id="Shape_4_" class="st4" d="M302.3,141.8c-0.3,0-0.7,0-1-0.1l-136.8-24.1c-3-0.8-5-3.7-4.5-6.9c0.6-3.1,3.5-5.2,6.6-4.9
			l136.8,24c3,0.6,5.2,3.4,5,6.4C308,139.3,305.4,141.8,302.3,141.8L302.3,141.8z"/>
		<path id="Shape_5_" class="st4" d="M273.2,167.3c-0.3,0-0.7,0-1-0.1L183,151.5c-3.3-0.7-5.4-3.7-4.8-7s3.6-5.4,6.9-4.9l89.2,15.7
			c3.1,0.5,5.2,3.4,5,6.5C279.1,164.9,276.4,167.3,273.2,167.3z"/>
		<path id="Rectangle-path" class="st5" d="M160.9,172.2l124.9,22c3.3,0.6,5.5,3.7,4.9,7l-10.5,59.5c-0.6,3.3-3.7,5.5-7,4.9
			l-124.9-22c-3.3-0.6-5.5-3.7-4.9-7l10.5-59.5C154.5,173.9,157.6,171.6,160.9,172.2z"/>
		<path id="Shape_6_" class="st6" d="M378.1,155.7c-0.1,1.9-0.2,3.7-0.6,5.6l-33.6,190.4l-46.5-14.2l26.9-153.1l6.4-36.2l6.5-37
			l4.5,0.8C363.2,115.5,378.6,134.1,378.1,155.7L378.1,155.7z"/>
		<path id="Shape_7_" class="st7" d="M308.2,302.4l-189-33.2c-0.7-0.1-1.4-0.2-2.1-0.2c-6.3,0-11.4,4.8-12,11.1
			c-0.6,6.2,3.7,11.9,9.9,12.9l190.4,33.5c5.4,0.9,10,4.3,12.6,9c2.7,4.8,3,10.4,1,15.5c-3.4,8.2-12,12.7-20.8,11.1l-189.7-33.4
			c-0.7-0.1-1.4-0.2-2.1-0.2c-6.3,0-11.5,4.8-12,11c-0.6,6.3,3.7,11.9,9.9,12.9l190.4,33.5c12,2.1,24.3-1,33.8-8.6
			c9.4-7.6,15.3-19,15.7-31.1C345.1,324.6,329.6,305.9,308.2,302.4L308.2,302.4z"/>
		<path id="Shape_8_" class="st2" d="M319.2,350.9c-3.4,8.2-12,12.7-20.8,11.1l-189.7-33.4L115,293l190.4,33.5
			c5.4,0.9,10,4.3,12.6,9C320.7,340.2,321.2,345.9,319.2,350.9L319.2,350.9z"/>
	</g>
</g>
<text transform="matrix(1 0 0 1 418.1174 172.1298)" class="st8 st9 st10">B</text>
<text transform="matrix(1 0 0 1 418.1174 282.1298)" class="st8 st9 st10">D</text>
<text transform="matrix(1 0 0 1 418.1174 392.1298)" class="st8 st9 st10">S</text>
</svg>
